<mxfile host="app.diagrams.net" modified="2023-11-08T09:32:18.858Z" agent="Mozilla/5.0 (Macintosh; Intel Mac OS X 10_15_7) AppleWebKit/537.36 (KHTML, like Gecko) Chrome/118.0.0.0 Safari/537.36" etag="CGPo5B_FoRjpUdsGjV98" version="22.0.8" type="github">
  <diagram id="C5RBs43oDa-KdzZeNtuy" name="Page-1">
    <mxGraphModel dx="940" dy="1664" grid="1" gridSize="10" guides="1" tooltips="1" connect="1" arrows="1" fold="1" page="1" pageScale="1" pageWidth="827" pageHeight="1169" math="0" shadow="0">
      <root>
        <mxCell id="WIyWlLk6GJQsqaUBKTNV-0" />
        <mxCell id="WIyWlLk6GJQsqaUBKTNV-1" parent="WIyWlLk6GJQsqaUBKTNV-0" />
        <mxCell id="pHIMFOc5z1mj0au0Gz62-32" style="edgeStyle=orthogonalEdgeStyle;rounded=0;orthogonalLoop=1;jettySize=auto;html=1;entryX=0;entryY=0.5;entryDx=0;entryDy=0;" parent="WIyWlLk6GJQsqaUBKTNV-1" source="pHIMFOc5z1mj0au0Gz62-0" target="pHIMFOc5z1mj0au0Gz62-33" edge="1">
          <mxGeometry relative="1" as="geometry" />
        </mxCell>
        <mxCell id="pHIMFOc5z1mj0au0Gz62-0" value="餐前付款" style="rounded=0;whiteSpace=wrap;html=1;" parent="WIyWlLk6GJQsqaUBKTNV-1" vertex="1">
          <mxGeometry x="360" y="80" width="80" height="40" as="geometry" />
        </mxCell>
        <mxCell id="pHIMFOc5z1mj0au0Gz62-1" value="餐后付款" style="rounded=0;whiteSpace=wrap;html=1;" parent="WIyWlLk6GJQsqaUBKTNV-1" vertex="1">
          <mxGeometry x="360" y="540" width="80" height="40" as="geometry" />
        </mxCell>
        <mxCell id="pHIMFOc5z1mj0au0Gz62-2" value="堂食/自取" style="rounded=0;whiteSpace=wrap;html=1;" parent="WIyWlLk6GJQsqaUBKTNV-1" vertex="1">
          <mxGeometry x="270" y="80" width="80" height="40" as="geometry" />
        </mxCell>
        <mxCell id="pHIMFOc5z1mj0au0Gz62-6" value="外卖小程序" style="rounded=0;whiteSpace=wrap;html=1;" parent="WIyWlLk6GJQsqaUBKTNV-1" vertex="1">
          <mxGeometry x="120" y="800" width="80" height="40" as="geometry" />
        </mxCell>
        <mxCell id="pHIMFOc5z1mj0au0Gz62-13" value="自取" style="rounded=0;whiteSpace=wrap;html=1;" parent="WIyWlLk6GJQsqaUBKTNV-1" vertex="1">
          <mxGeometry x="240" y="800" width="80" height="40" as="geometry" />
        </mxCell>
        <mxCell id="pHIMFOc5z1mj0au0Gz62-14" value="店内就餐" style="rounded=0;whiteSpace=wrap;html=1;" parent="WIyWlLk6GJQsqaUBKTNV-1" vertex="1">
          <mxGeometry x="360" y="800" width="80" height="40" as="geometry" />
        </mxCell>
        <mxCell id="pHIMFOc5z1mj0au0Gz62-17" value="扫码点餐小程序" style="rounded=0;whiteSpace=wrap;html=1;" parent="WIyWlLk6GJQsqaUBKTNV-1" vertex="1">
          <mxGeometry x="180" y="80" width="80" height="40" as="geometry" />
        </mxCell>
        <mxCell id="pHIMFOc5z1mj0au0Gz62-18" value="扫码点餐小程序" style="rounded=0;whiteSpace=wrap;html=1;" parent="WIyWlLk6GJQsqaUBKTNV-1" vertex="1">
          <mxGeometry x="120" y="530" width="80" height="40" as="geometry" />
        </mxCell>
        <mxCell id="pHIMFOc5z1mj0au0Gz62-19" value="堂食" style="rounded=0;whiteSpace=wrap;html=1;" parent="WIyWlLk6GJQsqaUBKTNV-1" vertex="1">
          <mxGeometry x="240" y="540" width="80" height="40" as="geometry" />
        </mxCell>
        <mxCell id="pHIMFOc5z1mj0au0Gz62-20" value="餐前付款" style="rounded=0;whiteSpace=wrap;html=1;" parent="WIyWlLk6GJQsqaUBKTNV-1" vertex="1">
          <mxGeometry x="360" y="600" width="80" height="40" as="geometry" />
        </mxCell>
        <mxCell id="pHIMFOc5z1mj0au0Gz62-21" value="餐后付款" style="rounded=0;whiteSpace=wrap;html=1;" parent="WIyWlLk6GJQsqaUBKTNV-1" vertex="1">
          <mxGeometry x="360" y="680" width="80" height="40" as="geometry" />
        </mxCell>
        <mxCell id="pHIMFOc5z1mj0au0Gz62-22" value="自取" style="rounded=0;whiteSpace=wrap;html=1;" parent="WIyWlLk6GJQsqaUBKTNV-1" vertex="1">
          <mxGeometry x="240" y="600" width="80" height="40" as="geometry" />
        </mxCell>
        <mxCell id="pHIMFOc5z1mj0au0Gz62-23" value="扫码点餐小程序" style="rounded=0;whiteSpace=wrap;html=1;" parent="WIyWlLk6GJQsqaUBKTNV-1" vertex="1">
          <mxGeometry x="120" y="600" width="80" height="40" as="geometry" />
        </mxCell>
        <mxCell id="pHIMFOc5z1mj0au0Gz62-24" value="扫码点餐小程序" style="rounded=0;whiteSpace=wrap;html=1;" parent="WIyWlLk6GJQsqaUBKTNV-1" vertex="1">
          <mxGeometry x="120" y="680" width="80" height="40" as="geometry" />
        </mxCell>
        <mxCell id="pHIMFOc5z1mj0au0Gz62-25" value="自取" style="rounded=0;whiteSpace=wrap;html=1;" parent="WIyWlLk6GJQsqaUBKTNV-1" vertex="1">
          <mxGeometry x="240" y="680" width="80" height="40" as="geometry" />
        </mxCell>
        <mxCell id="pHIMFOc5z1mj0au0Gz62-26" value="外卖小程序" style="rounded=0;whiteSpace=wrap;html=1;" parent="WIyWlLk6GJQsqaUBKTNV-1" vertex="1">
          <mxGeometry x="120" y="880" width="80" height="40" as="geometry" />
        </mxCell>
        <mxCell id="pHIMFOc5z1mj0au0Gz62-27" value="自取" style="rounded=0;whiteSpace=wrap;html=1;" parent="WIyWlLk6GJQsqaUBKTNV-1" vertex="1">
          <mxGeometry x="240" y="880" width="80" height="40" as="geometry" />
        </mxCell>
        <mxCell id="pHIMFOc5z1mj0au0Gz62-28" value="打包带走" style="rounded=0;whiteSpace=wrap;html=1;" parent="WIyWlLk6GJQsqaUBKTNV-1" vertex="1">
          <mxGeometry x="360" y="880" width="80" height="40" as="geometry" />
        </mxCell>
        <mxCell id="pHIMFOc5z1mj0au0Gz62-29" value="外卖小程序" style="rounded=0;whiteSpace=wrap;html=1;" parent="WIyWlLk6GJQsqaUBKTNV-1" vertex="1">
          <mxGeometry x="120" y="960" width="80" height="40" as="geometry" />
        </mxCell>
        <mxCell id="pHIMFOc5z1mj0au0Gz62-30" value="外卖" style="rounded=0;whiteSpace=wrap;html=1;" parent="WIyWlLk6GJQsqaUBKTNV-1" vertex="1">
          <mxGeometry x="240" y="960" width="80" height="40" as="geometry" />
        </mxCell>
        <mxCell id="pHIMFOc5z1mj0au0Gz62-38" style="edgeStyle=orthogonalEdgeStyle;rounded=0;orthogonalLoop=1;jettySize=auto;html=1;entryX=0;entryY=0.5;entryDx=0;entryDy=0;" parent="WIyWlLk6GJQsqaUBKTNV-1" source="pHIMFOc5z1mj0au0Gz62-31" target="pHIMFOc5z1mj0au0Gz62-37" edge="1">
          <mxGeometry relative="1" as="geometry" />
        </mxCell>
        <mxCell id="pHIMFOc5z1mj0au0Gz62-31" value="支付" style="rounded=0;whiteSpace=wrap;html=1;fillColor=#fff2cc;strokeColor=#d6b656;" parent="WIyWlLk6GJQsqaUBKTNV-1" vertex="1">
          <mxGeometry x="640" y="80" width="80" height="40" as="geometry" />
        </mxCell>
        <mxCell id="pHIMFOc5z1mj0au0Gz62-36" style="edgeStyle=orthogonalEdgeStyle;rounded=0;orthogonalLoop=1;jettySize=auto;html=1;entryX=0;entryY=0.5;entryDx=0;entryDy=0;" parent="WIyWlLk6GJQsqaUBKTNV-1" source="pHIMFOc5z1mj0au0Gz62-33" target="pHIMFOc5z1mj0au0Gz62-31" edge="1">
          <mxGeometry relative="1" as="geometry" />
        </mxCell>
        <mxCell id="7TPqTWcEJpfOGh4Xxn3h-2" style="edgeStyle=orthogonalEdgeStyle;rounded=0;orthogonalLoop=1;jettySize=auto;html=1;entryX=0.5;entryY=1;entryDx=0;entryDy=0;" edge="1" parent="WIyWlLk6GJQsqaUBKTNV-1" source="pHIMFOc5z1mj0au0Gz62-33" target="7TPqTWcEJpfOGh4Xxn3h-1">
          <mxGeometry relative="1" as="geometry" />
        </mxCell>
        <mxCell id="7TPqTWcEJpfOGh4Xxn3h-6" style="edgeStyle=orthogonalEdgeStyle;rounded=0;orthogonalLoop=1;jettySize=auto;html=1;entryX=0.5;entryY=1;entryDx=0;entryDy=0;exitX=0.75;exitY=0;exitDx=0;exitDy=0;" edge="1" parent="WIyWlLk6GJQsqaUBKTNV-1" source="pHIMFOc5z1mj0au0Gz62-33" target="7TPqTWcEJpfOGh4Xxn3h-5">
          <mxGeometry relative="1" as="geometry">
            <Array as="points">
              <mxPoint x="560" y="50" />
              <mxPoint x="710" y="50" />
            </Array>
          </mxGeometry>
        </mxCell>
        <mxCell id="pHIMFOc5z1mj0au0Gz62-33" value="待支付" style="rounded=0;whiteSpace=wrap;html=1;" parent="WIyWlLk6GJQsqaUBKTNV-1" vertex="1">
          <mxGeometry x="500" y="80" width="80" height="40" as="geometry" />
        </mxCell>
        <mxCell id="pHIMFOc5z1mj0au0Gz62-40" style="edgeStyle=orthogonalEdgeStyle;rounded=0;orthogonalLoop=1;jettySize=auto;html=1;entryX=0;entryY=0.5;entryDx=0;entryDy=0;" parent="WIyWlLk6GJQsqaUBKTNV-1" source="pHIMFOc5z1mj0au0Gz62-37" target="pHIMFOc5z1mj0au0Gz62-39" edge="1">
          <mxGeometry relative="1" as="geometry" />
        </mxCell>
        <mxCell id="pHIMFOc5z1mj0au0Gz62-69" style="edgeStyle=orthogonalEdgeStyle;rounded=0;orthogonalLoop=1;jettySize=auto;html=1;entryX=0;entryY=0.5;entryDx=0;entryDy=0;exitX=0.75;exitY=0;exitDx=0;exitDy=0;" parent="WIyWlLk6GJQsqaUBKTNV-1" source="pHIMFOc5z1mj0au0Gz62-37" target="pHIMFOc5z1mj0au0Gz62-41" edge="1">
          <mxGeometry relative="1" as="geometry">
            <Array as="points">
              <mxPoint x="830" y="20" />
            </Array>
          </mxGeometry>
        </mxCell>
        <mxCell id="7TPqTWcEJpfOGh4Xxn3h-8" style="edgeStyle=orthogonalEdgeStyle;rounded=0;orthogonalLoop=1;jettySize=auto;html=1;entryX=0.5;entryY=1;entryDx=0;entryDy=0;" edge="1" parent="WIyWlLk6GJQsqaUBKTNV-1" source="pHIMFOc5z1mj0au0Gz62-37" target="7TPqTWcEJpfOGh4Xxn3h-7">
          <mxGeometry relative="1" as="geometry" />
        </mxCell>
        <mxCell id="7TPqTWcEJpfOGh4Xxn3h-14" style="edgeStyle=orthogonalEdgeStyle;rounded=0;orthogonalLoop=1;jettySize=auto;html=1;entryX=0.75;entryY=1;entryDx=0;entryDy=0;exitX=0.5;exitY=1;exitDx=0;exitDy=0;" edge="1" parent="WIyWlLk6GJQsqaUBKTNV-1" source="pHIMFOc5z1mj0au0Gz62-37" target="7TPqTWcEJpfOGh4Xxn3h-11">
          <mxGeometry relative="1" as="geometry">
            <Array as="points">
              <mxPoint x="810" y="160" />
              <mxPoint x="1301" y="160" />
            </Array>
          </mxGeometry>
        </mxCell>
        <mxCell id="pHIMFOc5z1mj0au0Gz62-37" value="制作中" style="rounded=0;whiteSpace=wrap;html=1;" parent="WIyWlLk6GJQsqaUBKTNV-1" vertex="1">
          <mxGeometry x="770" y="80" width="80" height="40" as="geometry" />
        </mxCell>
        <mxCell id="pHIMFOc5z1mj0au0Gz62-47" style="edgeStyle=orthogonalEdgeStyle;rounded=0;orthogonalLoop=1;jettySize=auto;html=1;" parent="WIyWlLk6GJQsqaUBKTNV-1" source="pHIMFOc5z1mj0au0Gz62-45" edge="1">
          <mxGeometry relative="1" as="geometry">
            <mxPoint x="1270" y="100" as="targetPoint" />
          </mxGeometry>
        </mxCell>
        <mxCell id="7TPqTWcEJpfOGh4Xxn3h-13" style="edgeStyle=orthogonalEdgeStyle;rounded=0;orthogonalLoop=1;jettySize=auto;html=1;entryX=0.5;entryY=1;entryDx=0;entryDy=0;exitX=0.5;exitY=1;exitDx=0;exitDy=0;" edge="1" parent="WIyWlLk6GJQsqaUBKTNV-1" source="pHIMFOc5z1mj0au0Gz62-39" target="7TPqTWcEJpfOGh4Xxn3h-11">
          <mxGeometry relative="1" as="geometry">
            <Array as="points">
              <mxPoint x="1020" y="140" />
              <mxPoint x="1390" y="140" />
            </Array>
          </mxGeometry>
        </mxCell>
        <mxCell id="pHIMFOc5z1mj0au0Gz62-39" value="待取餐/配送中" style="rounded=0;whiteSpace=wrap;html=1;" parent="WIyWlLk6GJQsqaUBKTNV-1" vertex="1">
          <mxGeometry x="990" y="80" width="80" height="40" as="geometry" />
        </mxCell>
        <mxCell id="pHIMFOc5z1mj0au0Gz62-41" value="通知取餐" style="rounded=0;whiteSpace=wrap;html=1;fillColor=#dae8fc;strokeColor=#6c8ebf;" parent="WIyWlLk6GJQsqaUBKTNV-1" vertex="1">
          <mxGeometry x="887" width="80" height="40" as="geometry" />
        </mxCell>
        <mxCell id="pHIMFOc5z1mj0au0Gz62-42" value="确认取餐" style="rounded=0;whiteSpace=wrap;html=1;fillColor=#dae8fc;strokeColor=#6c8ebf;" parent="WIyWlLk6GJQsqaUBKTNV-1" vertex="1">
          <mxGeometry x="1120" width="80" height="40" as="geometry" />
        </mxCell>
        <mxCell id="pHIMFOc5z1mj0au0Gz62-44" value="不支持金额部分退款&lt;br&gt;支持部分商品退款&lt;br&gt;支持整单退款" style="rounded=0;whiteSpace=wrap;html=1;fillColor=#e1d5e7;strokeColor=#9673a6;" parent="WIyWlLk6GJQsqaUBKTNV-1" vertex="1">
          <mxGeometry x="1400" y="-10" width="130" height="60" as="geometry" />
        </mxCell>
        <mxCell id="7TPqTWcEJpfOGh4Xxn3h-12" style="edgeStyle=orthogonalEdgeStyle;rounded=0;orthogonalLoop=1;jettySize=auto;html=1;entryX=0.25;entryY=1;entryDx=0;entryDy=0;" edge="1" parent="WIyWlLk6GJQsqaUBKTNV-1" source="pHIMFOc5z1mj0au0Gz62-45" target="7TPqTWcEJpfOGh4Xxn3h-11">
          <mxGeometry relative="1" as="geometry" />
        </mxCell>
        <mxCell id="pHIMFOc5z1mj0au0Gz62-46" style="edgeStyle=orthogonalEdgeStyle;rounded=0;orthogonalLoop=1;jettySize=auto;html=1;entryX=0.5;entryY=0;entryDx=0;entryDy=0;" parent="WIyWlLk6GJQsqaUBKTNV-1" source="pHIMFOc5z1mj0au0Gz62-42" target="pHIMFOc5z1mj0au0Gz62-45" edge="1">
          <mxGeometry relative="1" as="geometry" />
        </mxCell>
        <mxCell id="7TPqTWcEJpfOGh4Xxn3h-4" style="edgeStyle=orthogonalEdgeStyle;rounded=0;orthogonalLoop=1;jettySize=auto;html=1;entryX=0.5;entryY=1;entryDx=0;entryDy=0;" edge="1" parent="WIyWlLk6GJQsqaUBKTNV-1" source="7TPqTWcEJpfOGh4Xxn3h-1" target="7TPqTWcEJpfOGh4Xxn3h-3">
          <mxGeometry relative="1" as="geometry" />
        </mxCell>
        <mxCell id="7TPqTWcEJpfOGh4Xxn3h-1" value="后台取消" style="rounded=0;whiteSpace=wrap;html=1;fillColor=#dae8fc;strokeColor=#6c8ebf;" vertex="1" parent="WIyWlLk6GJQsqaUBKTNV-1">
          <mxGeometry x="500" width="80" height="40" as="geometry" />
        </mxCell>
        <mxCell id="7TPqTWcEJpfOGh4Xxn3h-3" value="已取消" style="rounded=0;whiteSpace=wrap;html=1;" vertex="1" parent="WIyWlLk6GJQsqaUBKTNV-1">
          <mxGeometry x="500" y="-80" width="80" height="40" as="geometry" />
        </mxCell>
        <mxCell id="7TPqTWcEJpfOGh4Xxn3h-5" value="用户取消" style="rounded=0;whiteSpace=wrap;html=1;fillColor=#fff2cc;strokeColor=#d6b656;" vertex="1" parent="WIyWlLk6GJQsqaUBKTNV-1">
          <mxGeometry x="670" y="-80" width="80" height="40" as="geometry" />
        </mxCell>
        <mxCell id="7TPqTWcEJpfOGh4Xxn3h-9" style="edgeStyle=orthogonalEdgeStyle;rounded=0;orthogonalLoop=1;jettySize=auto;html=1;entryX=1;entryY=0.5;entryDx=0;entryDy=0;exitX=0.5;exitY=0;exitDx=0;exitDy=0;" edge="1" parent="WIyWlLk6GJQsqaUBKTNV-1" source="7TPqTWcEJpfOGh4Xxn3h-7" target="7TPqTWcEJpfOGh4Xxn3h-5">
          <mxGeometry relative="1" as="geometry" />
        </mxCell>
        <mxCell id="7TPqTWcEJpfOGh4Xxn3h-7" value="5分钟&lt;br&gt;系统自动取消" style="rounded=0;whiteSpace=wrap;html=1;fillColor=#dae8fc;strokeColor=#6c8ebf;" vertex="1" parent="WIyWlLk6GJQsqaUBKTNV-1">
          <mxGeometry x="770" y="-40" width="80" height="40" as="geometry" />
        </mxCell>
        <mxCell id="7TPqTWcEJpfOGh4Xxn3h-10" value="已经退款" style="rounded=0;whiteSpace=wrap;html=1;" vertex="1" parent="WIyWlLk6GJQsqaUBKTNV-1">
          <mxGeometry x="980" y="-80" width="80" height="40" as="geometry" />
        </mxCell>
        <mxCell id="7TPqTWcEJpfOGh4Xxn3h-15" style="edgeStyle=orthogonalEdgeStyle;rounded=0;orthogonalLoop=1;jettySize=auto;html=1;dashed=1;endArrow=none;endFill=0;" edge="1" parent="WIyWlLk6GJQsqaUBKTNV-1" source="7TPqTWcEJpfOGh4Xxn3h-11" target="pHIMFOc5z1mj0au0Gz62-44">
          <mxGeometry relative="1" as="geometry" />
        </mxCell>
        <mxCell id="7TPqTWcEJpfOGh4Xxn3h-17" style="edgeStyle=orthogonalEdgeStyle;rounded=0;orthogonalLoop=1;jettySize=auto;html=1;entryX=1;entryY=0.5;entryDx=0;entryDy=0;" edge="1" parent="WIyWlLk6GJQsqaUBKTNV-1" source="7TPqTWcEJpfOGh4Xxn3h-11" target="7TPqTWcEJpfOGh4Xxn3h-10">
          <mxGeometry relative="1" as="geometry">
            <Array as="points">
              <mxPoint x="1280" y="-60" />
            </Array>
          </mxGeometry>
        </mxCell>
        <mxCell id="7TPqTWcEJpfOGh4Xxn3h-11" value="退款&lt;br&gt;部分退款" style="rounded=0;whiteSpace=wrap;html=1;fillColor=#dae8fc;strokeColor=#6c8ebf;" vertex="1" parent="WIyWlLk6GJQsqaUBKTNV-1">
          <mxGeometry x="1241" width="80" height="40" as="geometry" />
        </mxCell>
        <mxCell id="7TPqTWcEJpfOGh4Xxn3h-16" value="" style="edgeStyle=orthogonalEdgeStyle;rounded=0;orthogonalLoop=1;jettySize=auto;html=1;" edge="1" parent="WIyWlLk6GJQsqaUBKTNV-1" source="pHIMFOc5z1mj0au0Gz62-39" target="pHIMFOc5z1mj0au0Gz62-45">
          <mxGeometry relative="1" as="geometry">
            <mxPoint x="1270" y="100" as="targetPoint" />
            <mxPoint x="1060" y="100" as="sourcePoint" />
          </mxGeometry>
        </mxCell>
        <mxCell id="pHIMFOc5z1mj0au0Gz62-45" value="已经完成" style="rounded=0;whiteSpace=wrap;html=1;" parent="WIyWlLk6GJQsqaUBKTNV-1" vertex="1">
          <mxGeometry x="1120" y="80" width="80" height="40" as="geometry" />
        </mxCell>
        <mxCell id="7TPqTWcEJpfOGh4Xxn3h-18" style="edgeStyle=orthogonalEdgeStyle;rounded=0;orthogonalLoop=1;jettySize=auto;html=1;entryX=0;entryY=0.5;entryDx=0;entryDy=0;" edge="1" parent="WIyWlLk6GJQsqaUBKTNV-1" source="7TPqTWcEJpfOGh4Xxn3h-19" target="7TPqTWcEJpfOGh4Xxn3h-32">
          <mxGeometry relative="1" as="geometry">
            <mxPoint x="500" y="390" as="targetPoint" />
          </mxGeometry>
        </mxCell>
        <mxCell id="7TPqTWcEJpfOGh4Xxn3h-19" value="餐后付款" style="rounded=0;whiteSpace=wrap;html=1;" vertex="1" parent="WIyWlLk6GJQsqaUBKTNV-1">
          <mxGeometry x="360" y="370" width="80" height="40" as="geometry" />
        </mxCell>
        <mxCell id="7TPqTWcEJpfOGh4Xxn3h-20" value="堂食/自取" style="rounded=0;whiteSpace=wrap;html=1;" vertex="1" parent="WIyWlLk6GJQsqaUBKTNV-1">
          <mxGeometry x="270" y="370" width="80" height="40" as="geometry" />
        </mxCell>
        <mxCell id="7TPqTWcEJpfOGh4Xxn3h-28" style="edgeStyle=orthogonalEdgeStyle;rounded=0;orthogonalLoop=1;jettySize=auto;html=1;entryX=0;entryY=0.5;entryDx=0;entryDy=0;" edge="1" parent="WIyWlLk6GJQsqaUBKTNV-1" source="7TPqTWcEJpfOGh4Xxn3h-32" target="7TPqTWcEJpfOGh4Xxn3h-35">
          <mxGeometry relative="1" as="geometry" />
        </mxCell>
        <mxCell id="7TPqTWcEJpfOGh4Xxn3h-29" style="edgeStyle=orthogonalEdgeStyle;rounded=0;orthogonalLoop=1;jettySize=auto;html=1;entryX=0;entryY=0.5;entryDx=0;entryDy=0;exitX=0.75;exitY=0;exitDx=0;exitDy=0;" edge="1" parent="WIyWlLk6GJQsqaUBKTNV-1" source="7TPqTWcEJpfOGh4Xxn3h-32" target="7TPqTWcEJpfOGh4Xxn3h-36">
          <mxGeometry relative="1" as="geometry">
            <Array as="points">
              <mxPoint x="830" y="310" />
            </Array>
          </mxGeometry>
        </mxCell>
        <mxCell id="7TPqTWcEJpfOGh4Xxn3h-31" style="edgeStyle=orthogonalEdgeStyle;rounded=0;orthogonalLoop=1;jettySize=auto;html=1;entryX=0.75;entryY=1;entryDx=0;entryDy=0;exitX=0.5;exitY=1;exitDx=0;exitDy=0;" edge="1" parent="WIyWlLk6GJQsqaUBKTNV-1" source="7TPqTWcEJpfOGh4Xxn3h-32" target="7TPqTWcEJpfOGh4Xxn3h-50">
          <mxGeometry relative="1" as="geometry">
            <Array as="points">
              <mxPoint x="810" y="440" />
              <mxPoint x="1301" y="440" />
            </Array>
          </mxGeometry>
        </mxCell>
        <mxCell id="7TPqTWcEJpfOGh4Xxn3h-53" style="edgeStyle=orthogonalEdgeStyle;rounded=0;orthogonalLoop=1;jettySize=auto;html=1;entryX=1;entryY=0.5;entryDx=0;entryDy=0;" edge="1" parent="WIyWlLk6GJQsqaUBKTNV-1" source="7TPqTWcEJpfOGh4Xxn3h-32" target="7TPqTWcEJpfOGh4Xxn3h-42">
          <mxGeometry relative="1" as="geometry">
            <Array as="points">
              <mxPoint x="810" y="270" />
            </Array>
          </mxGeometry>
        </mxCell>
        <mxCell id="7TPqTWcEJpfOGh4Xxn3h-32" value="制作中" style="rounded=0;whiteSpace=wrap;html=1;" vertex="1" parent="WIyWlLk6GJQsqaUBKTNV-1">
          <mxGeometry x="770" y="370" width="80" height="40" as="geometry" />
        </mxCell>
        <mxCell id="7TPqTWcEJpfOGh4Xxn3h-35" value="支付" style="rounded=0;whiteSpace=wrap;html=1;fillColor=#fff2cc;strokeColor=#d6b656;" vertex="1" parent="WIyWlLk6GJQsqaUBKTNV-1">
          <mxGeometry x="940" y="370" width="80" height="40" as="geometry" />
        </mxCell>
        <mxCell id="7TPqTWcEJpfOGh4Xxn3h-58" style="edgeStyle=orthogonalEdgeStyle;rounded=0;orthogonalLoop=1;jettySize=auto;html=1;entryX=0.25;entryY=0;entryDx=0;entryDy=0;" edge="1" parent="WIyWlLk6GJQsqaUBKTNV-1" source="7TPqTWcEJpfOGh4Xxn3h-36" target="7TPqTWcEJpfOGh4Xxn3h-52">
          <mxGeometry relative="1" as="geometry" />
        </mxCell>
        <mxCell id="7TPqTWcEJpfOGh4Xxn3h-36" value="线下支付" style="rounded=0;whiteSpace=wrap;html=1;fillColor=#dae8fc;strokeColor=#6c8ebf;" vertex="1" parent="WIyWlLk6GJQsqaUBKTNV-1">
          <mxGeometry x="940" y="290" width="80" height="40" as="geometry" />
        </mxCell>
        <mxCell id="7TPqTWcEJpfOGh4Xxn3h-38" value="支持商品部分退款&lt;br&gt;支持部分商品退款&lt;br&gt;支持整单退款" style="rounded=0;whiteSpace=wrap;html=1;fillColor=#e1d5e7;strokeColor=#9673a6;" vertex="1" parent="WIyWlLk6GJQsqaUBKTNV-1">
          <mxGeometry x="1400" y="500" width="130" height="60" as="geometry" />
        </mxCell>
        <mxCell id="7TPqTWcEJpfOGh4Xxn3h-39" style="edgeStyle=orthogonalEdgeStyle;rounded=0;orthogonalLoop=1;jettySize=auto;html=1;entryX=0.25;entryY=1;entryDx=0;entryDy=0;" edge="1" parent="WIyWlLk6GJQsqaUBKTNV-1" source="7TPqTWcEJpfOGh4Xxn3h-52" target="7TPqTWcEJpfOGh4Xxn3h-50">
          <mxGeometry relative="1" as="geometry" />
        </mxCell>
        <mxCell id="7TPqTWcEJpfOGh4Xxn3h-41" style="edgeStyle=orthogonalEdgeStyle;rounded=0;orthogonalLoop=1;jettySize=auto;html=1;entryX=1;entryY=0.5;entryDx=0;entryDy=0;" edge="1" parent="WIyWlLk6GJQsqaUBKTNV-1" source="7TPqTWcEJpfOGh4Xxn3h-42" target="7TPqTWcEJpfOGh4Xxn3h-43">
          <mxGeometry relative="1" as="geometry" />
        </mxCell>
        <mxCell id="7TPqTWcEJpfOGh4Xxn3h-42" value="后台取消" style="rounded=0;whiteSpace=wrap;html=1;fillColor=#dae8fc;strokeColor=#6c8ebf;" vertex="1" parent="WIyWlLk6GJQsqaUBKTNV-1">
          <mxGeometry x="650" y="250" width="80" height="40" as="geometry" />
        </mxCell>
        <mxCell id="7TPqTWcEJpfOGh4Xxn3h-43" value="已取消" style="rounded=0;whiteSpace=wrap;html=1;" vertex="1" parent="WIyWlLk6GJQsqaUBKTNV-1">
          <mxGeometry x="510" y="250" width="80" height="40" as="geometry" />
        </mxCell>
        <mxCell id="7TPqTWcEJpfOGh4Xxn3h-47" value="已经退款" style="rounded=0;whiteSpace=wrap;html=1;" vertex="1" parent="WIyWlLk6GJQsqaUBKTNV-1">
          <mxGeometry x="1120" y="200" width="80" height="40" as="geometry" />
        </mxCell>
        <mxCell id="7TPqTWcEJpfOGh4Xxn3h-49" style="edgeStyle=orthogonalEdgeStyle;rounded=0;orthogonalLoop=1;jettySize=auto;html=1;entryX=1;entryY=0.5;entryDx=0;entryDy=0;" edge="1" parent="WIyWlLk6GJQsqaUBKTNV-1" source="7TPqTWcEJpfOGh4Xxn3h-50" target="7TPqTWcEJpfOGh4Xxn3h-47">
          <mxGeometry relative="1" as="geometry">
            <Array as="points">
              <mxPoint x="1280" y="220" />
            </Array>
          </mxGeometry>
        </mxCell>
        <mxCell id="7TPqTWcEJpfOGh4Xxn3h-50" value="退款&lt;br&gt;部分退款" style="rounded=0;whiteSpace=wrap;html=1;fillColor=#dae8fc;strokeColor=#6c8ebf;" vertex="1" parent="WIyWlLk6GJQsqaUBKTNV-1">
          <mxGeometry x="1241" y="290" width="80" height="40" as="geometry" />
        </mxCell>
        <mxCell id="7TPqTWcEJpfOGh4Xxn3h-51" value="" style="edgeStyle=orthogonalEdgeStyle;rounded=0;orthogonalLoop=1;jettySize=auto;html=1;" edge="1" parent="WIyWlLk6GJQsqaUBKTNV-1" source="7TPqTWcEJpfOGh4Xxn3h-35" target="7TPqTWcEJpfOGh4Xxn3h-52">
          <mxGeometry relative="1" as="geometry">
            <mxPoint x="1270" y="390" as="targetPoint" />
            <mxPoint x="1060" y="390" as="sourcePoint" />
          </mxGeometry>
        </mxCell>
        <mxCell id="7TPqTWcEJpfOGh4Xxn3h-59" style="edgeStyle=orthogonalEdgeStyle;rounded=0;orthogonalLoop=1;jettySize=auto;html=1;entryX=1;entryY=0.25;entryDx=0;entryDy=0;" edge="1" parent="WIyWlLk6GJQsqaUBKTNV-1" source="7TPqTWcEJpfOGh4Xxn3h-52" target="7TPqTWcEJpfOGh4Xxn3h-42">
          <mxGeometry relative="1" as="geometry">
            <Array as="points">
              <mxPoint x="1170" y="260" />
            </Array>
          </mxGeometry>
        </mxCell>
        <mxCell id="7TPqTWcEJpfOGh4Xxn3h-52" value="已经完成" style="rounded=0;whiteSpace=wrap;html=1;" vertex="1" parent="WIyWlLk6GJQsqaUBKTNV-1">
          <mxGeometry x="1120" y="370" width="80" height="40" as="geometry" />
        </mxCell>
        <mxCell id="7TPqTWcEJpfOGh4Xxn3h-54" value="扫码点餐小程序" style="rounded=0;whiteSpace=wrap;html=1;" vertex="1" parent="WIyWlLk6GJQsqaUBKTNV-1">
          <mxGeometry x="179" y="371" width="80" height="40" as="geometry" />
        </mxCell>
      </root>
    </mxGraphModel>
  </diagram>
</mxfile>
